<?xml version="1.0" standalone="no"?>
<!DOCTYPE svg PUBLIC "-//W3C//DTD SVG 20010904//EN"
 "http://www.w3.org/TR/2001/REC-SVG-20010904/DTD/svg10.dtd">
<svg version="1.0" xmlns="http://www.w3.org/2000/svg"
 width="200.000000pt" height="112.000000pt" viewBox="0 0 200.000000 112.000000"
 preserveAspectRatio="xMidYMid meet">
<metadata>
Created by potrace 1.16, written by Peter Selinger 2001-2019
</metadata>
<g transform="translate(0.000000,112.000000) scale(0.100000,-0.100000)"
fill="#000000" stroke="none">
<path d="M307 882 c-13 -14 -17 -39 -17 -105 l0 -87 -88 0 c-118 0 -122 -5
-122 -132 0 -86 2 -96 23 -116 20 -19 35 -22 100 -22 45 0 77 4 77 10 0 6 -34
10 -83 10 -51 0 -88 5 -95 12 -16 16 -16 200 0 216 8 8 46 12 105 12 l93 0 0
93 c0 59 4 97 12 105 8 8 46 11 118 10 l105 -2 -110 -5 -110 -6 -3 -102 -3
-102 -102 -3 -102 -3 0 -105 0 -105 102 -3 102 -3 3 -102 3 -102 110 -6 110
-5 -105 -2 c-72 -1 -110 2 -118 10 -7 7 -13 49 -14 107 l-2 96 -3 -94 c-3 -86
-2 -96 18 -117 20 -22 31 -24 109 -24 114 0 137 15 142 94 1 30 0 52 -4 49 -5
-2 -8 -26 -8 -53 0 -27 -3 -51 -8 -53 -4 -3 -5 33 -3 79 5 137 9 133 -110 136
l-101 3 0 95 0 95 101 3 c119 3 115 -1 110 136 -2 46 -1 82 4 79 4 -2 8 -28 9
-56 l2 -52 3 49 c6 77 -8 86 -132 86 -86 0 -104 -3 -118 -18z"/>
<path d="M1475 802 c-51 -31 -95 -89 -95 -125 0 -49 -18 -102 -41 -123 -14
-12 -43 -21 -83 -25 l-61 -6 59 -1 c54 -2 61 1 92 32 19 19 34 44 34 57 0 19
4 16 30 -19 37 -52 79 -74 132 -70 l41 3 0 43 c0 23 -2 44 -4 46 -9 8 -100 13
-92 6 4 -5 28 -10 53 -13 l45 -4 -46 -1 c-55 -2 -83 21 -81 70 1 43 32 68 83
68 35 0 39 3 39 25 0 23 -3 25 -49 25 -119 0 -173 -133 -86 -209 35 -30 51
-37 110 -44 20 -3 15 -4 -16 -6 -56 -1 -103 27 -130 79 -25 46 -24 80 4 120
32 48 66 70 123 79 l49 9 -40 1 c-23 0 -53 -7 -70 -17z"/>
<path d="M1680 802 c-54 -29 -80 -75 -80 -140 0 -51 3 -57 44 -98 38 -39 48
-44 89 -44 78 0 137 67 137 155 0 41 -5 52 -42 91 -52 54 -95 65 -148 36z m93
-6 c103 -44 117 -190 23 -247 -138 -84 -262 134 -132 231 44 33 64 36 109 16z"/>
<path d="M1659 762 c-25 -23 -33 -38 -36 -78 -7 -66 15 -110 64 -131 98 -40
189 54 153 161 -25 78 -119 103 -181 48z"/>
<path d="M970 786 c-64 -17 -115 -59 -145 -119 -44 -88 -28 -174 45 -247 52
-52 99 -70 189 -70 l61 0 0 45 0 45 -76 0 c-75 0 -77 1 -115 39 -36 35 -39 43
-39 93 0 94 54 138 170 138 l60 0 0 45 0 45 -52 -1 c-29 0 -73 -6 -98 -13z"/>
<path d="M1130 750 l-5 -45 -75 -6 c-81 -6 -113 -18 -130 -49 -10 -19 -7 -20
96 -20 59 0 105 -2 103 -4 -3 -3 -52 -6 -109 -7 l-105 -1 1 -56 c1 -49 4 -58
33 -84 29 -26 36 -28 109 -26 l77 2 -75 3 c-62 3 -81 8 -105 28 l-30 24 101 1
c64 0 104 4 112 12 7 7 11 30 10 53 l-1 40 -6 -45 -6 -45 -107 -3 c-60 -1
-108 1 -108 5 0 4 47 7 105 5 l105 -3 0 45 c0 25 0 49 0 54 0 4 -44 9 -97 12
l-98 5 29 20 c20 13 51 21 97 23 79 5 92 15 87 69 l-4 38 -4 -45z"/>
<path d="M1308 643 l-3 -38 -65 -1 -65 -1 63 4 62 4 -1 32 c-2 30 -2 30 -6 5
-4 -25 -8 -27 -61 -30 l-57 -3 1 -40 c1 -25 0 -29 -3 -12 -5 30 -23 37 -23 9
0 -11 10 -27 22 -38 12 -10 18 -13 14 -6 -5 9 8 12 53 12 49 0 65 4 90 26 26
22 31 33 31 70 0 40 -2 44 -24 44 -21 0 -25 -5 -28 -37z"/>
</g>
</svg>
